<svg version="1.1" xmlns="http://www.w3.org/2000/svg" xmlns:xlink="http://www.w3.org/1999/xlink" x="0px" y="0px"
	 viewBox="0 0 100 100" style="enable-background:new 0 0 100 100;" xml:space="preserve">
<g id="iconHowTo">
	<path id="XMLID_8_" class="st0" d="M65.5,62.9l13.6-2.1c0.8-2.2,1.3-4.6,1.5-7l-11.3-7.7l6.7-11.6c-1.3-2.1-2.9-4-4.7-5.7
		l-12.8,3.9l-4.9-12.3c-1.2-0.2-2.5-0.2-3.8-0.2s-2.5,0.1-3.8,0.2l-4.9,12.3l-12.8-3.9c-1.8,1.7-3.4,3.6-4.7,5.7l6.7,11.6l-11.3,7.7
		c0.2,2.4,0.7,4.8,1.5,7l13.6,2.1l-1,14c1.9,1.2,4,2.3,6.2,3L50,70.4l10.3,9.6c2.2-0.8,4.3-1.8,6.2-3L65.5,62.9z"/>
	<circle id="XMLID_5_" class="st0" cx="50.1" cy="51.4" r="9.3"/>
</g>
</svg>
